<?xml version="1.0" standalone="no"?>
<!DOCTYPE svg PUBLIC "-//W3C//DTD SVG 20010904//EN"
 "http://www.w3.org/TR/2001/REC-SVG-20010904/DTD/svg10.dtd">
<svg version="1.0" xmlns="http://www.w3.org/2000/svg"
 width="568.000000pt" height="568.000000pt" viewBox="0 0 568.000000 568.000000"
 preserveAspectRatio="xMidYMid meet">
<metadata>
Created by potrace 1.14, written by Peter Selinger 2001-2017
</metadata>
<g transform="translate(0.000000,568.000000) scale(0.100000,-0.100000)"
fill="#000000" stroke="none">
<path d="M2763 5311 c-88 -40 -102 -59 -330 -456 -207 -359 -417 -723 -442
-765 -11 -19 -28 -48 -37 -65 -9 -16 -66 -115 -127 -220 -61 -104 -119 -206
-130 -225 -19 -34 -189 -328 -522 -905 -89 -154 -173 -300 -187 -325 -14 -25
-49 -85 -78 -135 -29 -49 -62 -106 -72 -125 -11 -19 -41 -71 -67 -115 -25 -44
-50 -88 -56 -97 -13 -23 -136 -237 -151 -263 -6 -11 -44 -76 -84 -145 -41 -69
-81 -138 -90 -155 -9 -16 -23 -41 -32 -55 -50 -79 -296 -515 -321 -568 -35
-75 -43 -157 -20 -214 20 -50 82 -102 141 -119 72 -21 657 -17 877 6 22 2 69
7 105 10 36 4 67 8 70 10 3 1 30 6 60 9 173 20 404 81 576 151 421 174 686
495 791 960 26 116 26 116 38 210 4 33 9 68 11 79 2 10 6 82 10 160 3 77 8
143 9 145 3 2 164 4 245 2 24 -1 25 -4 26 -58 1 -75 13 -271 19 -303 2 -14 7
-45 11 -70 3 -24 7 -47 9 -50 1 -3 6 -25 9 -50 3 -25 13 -70 22 -100 8 -30 19
-68 23 -85 17 -63 75 -199 118 -278 137 -249 344 -434 613 -548 41 -18 89 -38
105 -45 87 -37 359 -103 490 -119 28 -3 61 -8 75 -10 39 -7 98 -13 185 -21 44
-3 100 -8 125 -10 124 -11 678 -14 715 -4 107 28 169 89 181 179 10 70 -20
150 -119 323 -52 89 -177 307 -279 483 -101 176 -274 475 -383 665 -109 190
-209 363 -222 385 -43 71 -203 348 -203 351 0 2 -17 32 -38 66 -21 35 -52 88
-69 118 -17 30 -97 170 -178 310 -81 140 -157 271 -168 290 -10 19 -43 76 -72
125 -29 50 -62 106 -72 125 -41 72 -436 757 -468 810 -18 30 -43 73 -55 95
-12 22 -48 85 -80 140 -32 55 -70 120 -84 145 -14 25 -46 82 -72 127 -122 213
-227 280 -351 224z m120 -702 c41 -21 267 -264 358 -384 143 -190 250 -416
267 -565 2 -19 7 -53 12 -75 9 -42 6 -307 -5 -365 -23 -119 -22 -116 -2 -141
80 -99 155 -356 183 -626 4 -32 7 -62 8 -68 0 -5 -10 -9 -24 -9 -75 4 -190 17
-309 35 l-133 20 -17 -22 c-14 -21 -37 -57 -89 -141 -31 -50 -47 -53 -303 -53
l-237 0 -27 25 c-14 14 -49 62 -77 107 -28 46 -56 83 -63 83 -7 0 -34 -4 -61
-9 -27 -5 -76 -12 -109 -16 -33 -3 -67 -8 -75 -10 -8 -2 -42 -6 -75 -10 -33
-3 -78 -8 -101 -10 -37 -4 -41 -2 -38 18 2 12 8 59 14 104 6 45 13 91 15 101
2 11 6 35 9 53 25 162 102 371 158 433 10 10 16 22 14 25 -4 7 -15 76 -26 171
-8 73 -6 271 5 340 40 264 192 541 441 800 34 36 86 90 116 121 29 31 62 61
73 67 26 15 71 15 98 1z m-1003 -1229 c8 -18 28 -39 49 -49 l36 -19 -35 -20
c-19 -12 -43 -35 -54 -52 -17 -29 -19 -30 -32 -13 -7 10 -14 24 -14 31 0 7
-16 20 -35 29 -19 9 -35 19 -35 22 0 3 14 14 30 23 17 10 38 31 48 48 21 37
26 37 42 0z m1963 0 c10 -16 31 -37 47 -47 37 -22 37 -28 2 -42 -16 -7 -38
-28 -49 -48 l-20 -35 -19 31 c-10 18 -35 41 -54 53 l-35 20 36 19 c21 10 41
31 49 49 16 37 21 38 43 0z m-2188 -756 c13 3 28 7 33 10 4 2 8 -21 7 -52 l0
-57 -57 -1 c-55 -1 -56 0 -48 22 5 12 6 39 3 59 -6 36 -5 37 15 26 12 -6 33
-9 47 -7z m2435 -26 c-5 -16 -5 -39 -1 -51 8 -21 6 -22 -48 -22 l-57 0 1 51 0
51 56 0 57 1 -8 -30z m-2834 -473 c44 -13 55 -13 103 1 29 8 55 14 57 12 2 -2
-4 -28 -13 -58 -14 -49 -14 -58 1 -105 19 -60 20 -68 6 -60 -5 3 -31 12 -58
19 -41 10 -56 9 -104 -5 l-55 -16 14 56 c15 54 11 99 -12 154 -9 21 -2 21 61
2z m3069 1 c48 -13 61 -13 106 0 28 9 52 14 54 12 1 -2 -5 -28 -14 -58 -15
-51 -15 -58 0 -105 19 -58 15 -62 -52 -42 -41 13 -52 12 -102 -3 -32 -10 -57
-15 -57 -11 0 4 7 29 17 56 16 48 13 81 -12 148 -9 21 -10 21 60 3z m-2151
-174 c18 -9 17 -11 -12 -26 -18 -9 -34 -27 -38 -41 -8 -33 -15 -31 -37 6 -9
17 -26 33 -37 36 -27 7 -25 21 4 34 13 6 29 23 36 37 l12 27 26 -32 c15 -17
36 -35 46 -41z m1426 28 c0 -4 11 -13 25 -20 30 -16 32 -27 6 -35 -11 -3 -28
-20 -39 -37 l-20 -31 -15 30 c-9 16 -28 35 -44 42 l-28 13 26 13 c14 8 34 26
44 41 17 26 18 27 31 9 8 -10 14 -22 14 -25z m-2355 -431 c4 -11 19 -28 34
-37 l28 -17 -42 -42 -42 -42 -12 25 c-6 13 -22 29 -36 36 -31 14 -31 21 -1 37
13 7 30 24 37 37 15 29 26 30 34 3z m3225 -4 c5 -14 21 -30 35 -37 30 -14 32
-24 4 -33 -11 -4 -28 -19 -37 -34 l-17 -28 -42 42 -42 42 25 12 c13 6 29 22
36 36 14 32 26 32 38 0z"/>
<path d="M2784 3740 c-89 -27 -146 -137 -118 -229 31 -105 146 -158 247 -113
97 43 136 155 87 251 -37 73 -136 114 -216 91z"/>
</g>
</svg>
